<svg width="500" height="453" viewBox="0 0 500 453" fill="none" xmlns="http://www.w3.org/2000/svg">
<path d="M437.421 67.2265C416.852 46.5515 390.632 30.1806 358.735 18.1136C326.838 6.04668 290.558 0 249.868 0C195.395 0 149.266 10.5355 111.428 31.6329C73.59 52.7302 45.5746 80.4816 27.3553 114.913C9.10963 149.372 0 186.391 0 226.024C0 265.447 9.16244 302.413 27.4873 336.977C45.8122 371.515 73.854 399.398 111.56 420.575C149.292 441.751 195.369 452.366 249.842 452.366C303.681 452.366 349.335 442.2 386.856 421.842C424.377 401.484 452.603 374.049 471.562 339.512C490.521 304.975 500 267.137 500 226.024C500 195.712 494.693 166.852 484.104 139.391C473.542 111.956 457.964 87.9014 437.421 67.2265ZM411.095 310.572C402.487 327.049 389.919 339.935 373.336 349.255C356.754 358.576 336.687 363.223 313.16 363.223C278.966 363.223 252.007 353.163 232.256 332.99C212.505 312.817 202.63 286.465 202.63 253.934C202.63 221.377 212.452 195.078 232.098 175.037C251.743 154.969 278.755 144.936 313.134 144.936C331.142 144.936 347.011 147.655 360.715 153.068C374.419 158.481 386.037 166.059 395.569 175.776C405.075 185.493 412.204 196.953 416.904 210.155C421.604 223.358 423.954 237.933 423.954 253.908C423.981 275.216 419.677 294.096 411.095 310.572Z" fill="#A3E635"/>
</svg>
