<svg width="894" height="1154" viewBox="0 0 894 1154" fill="none" xmlns="http://www.w3.org/2000/svg">
<path d="M14.9444 831.065C33.7347 918.202 74.1652 1003.59 136.304 1087.28C198.442 1170.97 281.793 1246.41 386.468 1313.57C526.6 1403.47 662.657 1452.51 794.818 1460.69C926.978 1468.87 1044.85 1443.72 1148.55 1385.21C1252.36 1326.68 1336.9 1246.49 1402.32 1144.53C1467.38 1043.11 1504.83 932.893 1514.73 813.732C1524.6 694.638 1498.48 576.624 1436.43 459.912C1374.32 343.157 1273.31 239.801 1133.18 149.892C994.673 61.0291 860.45 11.8283 730.325 2.27015C600.2 -7.28787 482.305 16.6991 376.529 74.2555C270.753 131.812 183.915 213.505 116.058 319.266C66.0264 397.246 32.045 480.25 13.9587 568.37C-4.15192 656.378 -3.77819 743.972 14.9444 831.065ZM484.315 248.505C533.654 220.326 587.255 207.923 645.297 211.314C703.339 214.705 762.634 235.872 823.156 274.703C911.121 331.142 963.87 401.518 981.382 486.013C998.895 570.508 980.805 654.598 927.113 738.284C873.377 822.037 804.701 873.48 721.085 892.611C637.425 911.811 551.376 893.039 462.935 836.296C416.609 806.573 380.274 773.384 353.955 736.84C327.635 700.297 310.255 661.626 301.772 620.896C293.356 580.21 293.931 538.962 303.63 497.242C313.33 455.521 331.342 414.147 357.709 373.051C392.811 318.191 435.044 276.727 484.315 248.505Z" fill="white" fill-opacity="0.2"/>
</svg>
