<svg width="983" height="859" viewBox="0 0 983 859" fill="none" xmlns="http://www.w3.org/2000/svg">
<path d="M517.035 -317.306C518.942 -318.484 520.849 -319.662 522.814 -320.876C622.93 -381.695 745.128 -403.607 859.242 -376.536C923.151 -360.371 981.929 -332.643 1035.11 -293.548C1037.06 -292.145 1039 -290.742 1041 -289.296C1139.77 -214.819 1216.81 -101.988 1235.12 21.7136C1253.76 161.401 1210.92 290.962 1127.09 402.643C1052.71 499.49 958.56 586.193 842.939 629.755C841.152 630.449 839.366 631.142 837.525 631.856C798.906 646.728 758.079 656.024 716.751 658.65C709.54 659.115 702.5 659.979 695.341 660.935C590.569 671.465 472.834 625.453 392.068 561.207C357.72 532.709 323.968 502.085 297.163 466.242C295.762 464.382 294.362 462.522 292.919 460.606C247.134 399.059 213.424 329.162 202.237 252.766C201.943 250.762 201.648 248.758 201.345 246.694C182.478 112.78 227.85 -16.3846 307.006 -123.614C308.775 -126.069 308.775 -126.069 310.581 -128.574C366.52 -203.663 437.479 -268.457 517.035 -317.306Z" fill="white" fill-opacity="0.05"/>
<path d="M765.885 -6.57489C807.31 32.0567 842.331 86.8287 846.342 140.323C856.267 208.698 829.525 273.946 778.995 328.13C728.465 382.315 659.426 411.803 590.525 406.668C538.296 402.776 485.84 382.753 444.415 344.121C406.141 308.428 374.759 257.183 365.402 209.626C351.27 137.805 377.636 60.9873 431.08 3.67821C478.57 -47.2456 551.296 -81.3863 613.736 -76.5964C691.786 -70.6089 721.171 -48.2732 765.885 -6.57489Z" fill="#09090B"/>
</svg>
