<svg width="190" height="172" viewBox="0 0 190 172" fill="none" xmlns="http://www.w3.org/2000/svg">
<path d="M165.66 25.46C157.87 17.63 147.94 11.43 135.86 6.86C123.78 2.29 110.04 0 94.63 0C74 0 56.53 3.99 42.2 11.98C27.87 19.97 17.26 30.48 10.36 43.52C3.45 56.57 0 70.59 0 85.6C0 100.53 3.47 114.53 10.41 127.62C17.35 140.7 27.97 151.26 42.25 159.28C56.54 167.3 73.99 171.32 94.62 171.32C115.01 171.32 132.3 167.47 146.51 159.76C160.72 152.05 171.41 141.66 178.59 128.58C185.77 115.5 189.36 101.17 189.36 85.6C189.36 74.12 187.35 63.19 183.34 52.79C179.34 42.4 173.44 33.29 165.66 25.46ZM155.69 117.62C152.43 123.86 147.67 128.74 141.39 132.27C135.11 135.8 127.51 137.56 118.6 137.56C105.65 137.56 95.44 133.75 87.96 126.11C80.48 118.47 76.74 108.49 76.74 96.17C76.74 83.84 80.46 73.88 87.9 66.29C95.34 58.69 105.57 54.89 118.59 54.89C125.41 54.89 131.42 55.92 136.61 57.97C141.8 60.02 146.2 62.89 149.81 66.57C153.41 70.25 156.11 74.59 157.89 79.59C159.67 84.59 160.56 90.11 160.56 96.16C160.57 104.23 158.94 111.38 155.69 117.62Z" fill="white"/>
</svg>
